<svg width="24" height="28" viewBox="0 0 24 28" fill="none" xmlns="http://www.w3.org/2000/svg">
<path d="M12 0C5.36571 0 0 4.382 0 9.8C0 17.15 12 28 12 28C12 28 24 17.15 24 9.8C24 4.382 18.6343 0 12 0ZM3.42857 9.8C3.42857 5.936 7.26857 2.8 12 2.8C16.7314 2.8 20.5714 5.936 20.5714 9.8C20.5714 13.832 15.6343 19.866 12 23.632C8.43429 19.894 3.42857 13.79 3.42857 9.8Z" fill="black" fill-opacity="0.8"/>
<ellipse cx="12.0153" cy="10.0083" rx="4.00786" ry="3.99908" transform="rotate(0.106408 12.0153 10.0083)" fill="black" fill-opacity="0.8"/>
</svg>
